<svg width="32" height="32" viewBox="0 0 32 32" fill="none" xmlns="http://www.w3.org/2000/svg">
<path d="M30 6C30 3.79375 28.2062 2 26 2H6C3.79375 2 2 3.79375 2 6V26C2 28.2062 3.79375 30 6 30H26C28.2062 30 30 28.2062 30 26V6ZM18.6125 25.4813C18.6125 25.3688 18.6125 25.1063 18.6187 24.7563C18.625 24.0438 18.625 22.9562 18.625 22.025C18.625 21.05 18.3 20.4313 17.9187 20.1063C20.2312 19.85 22.6688 19.5313 22.6688 15.5375C22.6688 14.4 22.2625 13.8313 21.6 13.1C21.7063 12.8313 22.0625 11.725 21.4937 10.2875C20.625 10.0188 18.6375 11.4062 18.6375 11.4062C17.8125 11.175 16.9188 11.0562 16.0375 11.0562C15.1563 11.0562 14.2625 11.175 13.4375 11.4062C13.4375 11.4062 11.45 10.0188 10.5813 10.2875C10.0125 11.7188 10.3625 12.825 10.475 13.1C9.8125 13.8313 9.5 14.4 9.5 15.5375C9.5 19.5125 11.8313 19.85 14.1438 20.1063C13.8438 20.375 13.575 20.8375 13.4812 21.5C12.8875 21.7688 11.3687 22.2313 10.4625 20.6313C9.89375 19.6438 8.86875 19.5625 8.86875 19.5625C7.85625 19.55 8.8 20.2 8.8 20.2C9.475 20.5125 9.95 21.7125 9.95 21.7125C10.5562 23.5687 13.4563 22.9438 13.4563 22.9438C13.4563 23.5063 13.4625 24.3 13.4625 24.8563C13.4625 25.1563 13.4688 25.3938 13.4688 25.4813C13.4688 25.75 13.2812 26.075 12.75 25.9813C8.625 24.6 5.7375 20.675 5.7375 16.0875C5.7375 10.35 10.125 5.99375 15.8625 5.99375C21.6 5.99375 26.25 10.35 26.25 16.0875C26.2563 20.675 23.4562 24.6063 19.3312 25.9813C18.8062 26.075 18.6125 25.75 18.6125 25.4813ZM12.9563 22.0562C12.9438 21.9625 13.025 21.8813 13.1438 21.8563C13.2625 21.8438 13.375 21.8938 13.3875 21.975C13.4062 22.0563 13.325 22.1375 13.2 22.1625C13.0812 22.1875 12.9688 22.1375 12.9563 22.0562ZM12.3875 22.2563C12.25 22.2688 12.1562 22.2 12.1562 22.1063C12.1562 22.025 12.25 21.9562 12.375 21.9562C12.4937 21.9437 12.6062 22.0125 12.6062 22.1063C12.6062 22.1875 12.5125 22.2563 12.3875 22.2563ZM11.4937 22.1187C11.375 22.0937 11.2938 22 11.3188 21.9188C11.3438 21.8375 11.4687 21.8 11.575 21.825C11.7 21.8625 11.7812 21.9563 11.75 22.0375C11.725 22.1188 11.6 22.1562 11.4937 22.1187ZM10.7125 21.6625C10.6187 21.5813 10.5938 21.4625 10.6562 21.4062C10.7125 21.3375 10.8313 21.35 10.925 21.4438C11.0063 21.525 11.0375 21.65 10.9812 21.7C10.925 21.7688 10.8062 21.7563 10.7125 21.6625ZM10.1812 21.0375C10.1125 20.9438 10.1125 20.8375 10.1812 20.7938C10.25 20.7375 10.3563 20.7812 10.4125 20.875C10.4813 20.9688 10.4813 21.0813 10.4125 21.1313C10.3563 21.1688 10.25 21.1313 10.1812 21.0375ZM9.7875 20.4875C9.71875 20.4062 9.70625 20.3125 9.7625 20.2687C9.81875 20.2125 9.9125 20.2437 9.98125 20.3062C10.05 20.3875 10.0625 20.4812 10.0063 20.525C9.95 20.5812 9.85625 20.55 9.7875 20.4875ZM9.4125 20.0875C9.33125 20.05 9.29375 19.9812 9.31875 19.925C9.34375 19.8875 9.4125 19.8687 9.49375 19.9C9.575 19.9437 9.6125 20.0125 9.5875 20.0625C9.5625 20.1187 9.48125 20.1312 9.4125 20.0875Z" fill="#595651"/>
</svg>
