<svg width="42" height="42" viewBox="0 0 42 42" fill="none" xmlns="http://www.w3.org/2000/svg">
<path d="M8.75 38.5C7.7875 38.5 6.96354 38.1573 6.27812 37.4719C5.59271 36.7865 5.25 35.9625 5.25 35V15.2687C4.725 14.9479 4.30208 14.5323 3.98125 14.0219C3.66042 13.5115 3.5 12.9208 3.5 12.25V7C3.5 6.0375 3.84271 5.21354 4.52812 4.52812C5.21354 3.84271 6.0375 3.5 7 3.5H35C35.9625 3.5 36.7865 3.84271 37.4719 4.52812C38.1573 5.21354 38.5 6.0375 38.5 7V12.25C38.5 12.9208 38.3396 13.5115 38.0187 14.0219C37.6979 14.5323 37.275 14.9479 36.75 15.2687V35C36.75 35.9625 36.4073 36.7865 35.7219 37.4719C35.0365 38.1573 34.2125 38.5 33.25 38.5H8.75ZM8.75 15.75V35H33.25V15.75H8.75ZM7 12.25H35V7H7V12.25ZM15.75 24.5H26.25V21H15.75V24.5Z" fill="#875800"/>
</svg>
