<svg width="32" height="32" viewBox="0 0 32 32" fill="none" xmlns="http://www.w3.org/2000/svg">
<path d="M24.5867 4.07996H7.41341C6.53011 4.08242 5.6837 4.4344 5.05911 5.05899C4.43452 5.68358 4.08254 6.52999 4.08008 7.41329V24.5866C4.08254 25.4699 4.43452 26.3163 5.05911 26.9409C5.6837 27.5655 6.53011 27.9175 7.41341 27.92H24.5867C25.4708 27.92 26.3186 27.5688 26.9438 26.9436C27.5689 26.3185 27.9201 25.4707 27.9201 24.5866V7.41329C27.9201 6.52923 27.5689 5.68139 26.9438 5.05627C26.3186 4.43115 25.4708 4.07996 24.5867 4.07996ZM26.5867 24.5866C26.5829 25.1159 26.371 25.6223 25.9967 25.9966C25.6225 26.3708 25.116 26.5828 24.5867 26.5866H7.41341C6.88416 26.5828 6.37768 26.3708 6.00344 25.9966C5.6292 25.6223 5.41725 25.1159 5.41341 24.5866V7.41329C5.41725 6.88404 5.6292 6.37756 6.00344 6.00332C6.37768 5.62907 6.88416 5.41713 7.41341 5.41329H24.5867C25.116 5.41713 25.6225 5.62907 25.9967 6.00332C26.371 6.37756 26.5829 6.88404 26.5867 7.41329V24.5866Z" fill="#595651"/>
<path d="M8.50146 14.3305C8.50146 13.9769 8.64194 13.6378 8.89199 13.3877C9.14204 13.1377 9.48118 12.9972 9.8348 12.9972C10.1884 12.9972 10.5276 13.1377 10.7776 13.3877C11.0277 13.6378 11.1681 13.9769 11.1681 14.3305V22.9972C11.1681 23.3508 11.0277 23.69 10.7776 23.94C10.5276 24.19 10.1884 24.3305 9.8348 24.3305C9.48118 24.3305 9.14204 24.19 8.89199 23.94C8.64194 23.69 8.50146 23.3508 8.50146 22.9972V14.3305Z" fill="#595651"/>
<path d="M9.8348 10.3252C10.5712 10.3252 11.1681 9.72828 11.1681 8.9919C11.1681 8.25552 10.5712 7.65857 9.8348 7.65857C9.09842 7.65857 8.50146 8.25552 8.50146 8.9919C8.50146 9.72828 9.09842 10.3252 9.8348 10.3252Z" fill="#595651"/>
<path d="M23.4935 17.8265V22.9999C23.4935 23.3535 23.353 23.6926 23.103 23.9427C22.8529 24.1927 22.5138 24.3332 22.1602 24.3332C21.8066 24.3332 21.4674 24.1927 21.2174 23.9427C20.9673 23.6926 20.8268 23.3535 20.8268 22.9999V17.8265C20.8268 17.2554 20.6 16.7077 20.1962 16.3039C19.7923 15.9001 19.2446 15.6732 18.6735 15.6732C18.1024 15.6732 17.5547 15.9001 17.1509 16.3039C16.7471 16.7077 16.5202 17.2554 16.5202 17.8265V22.9999C16.5202 23.3535 16.3797 23.6926 16.1297 23.9427C15.8796 24.1927 15.5405 24.3332 15.1868 24.3332C14.8332 24.3332 14.4941 24.1927 14.244 23.9427C13.994 23.6926 13.8535 23.3535 13.8535 22.9999V14.3332C13.859 13.9813 14.0013 13.6453 14.2501 13.3965C14.499 13.1476 14.8349 13.0054 15.1868 12.9999C15.4127 12.9937 15.636 13.0486 15.8331 13.159C16.0303 13.2693 16.194 13.4308 16.3068 13.6265C17.0399 13.2106 17.8694 12.9945 18.7123 12.9999C19.5551 13.0052 20.3818 13.2319 21.1095 13.6572C21.8372 14.0825 22.4405 14.6915 22.8589 15.4232C23.2772 16.1549 23.4961 16.9837 23.4935 17.8265Z" fill="#595651"/>
</svg>
