<svg width="42" height="42" viewBox="0 0 42 42" fill="none" xmlns="http://www.w3.org/2000/svg">
<path d="M15.75 5.25V1.75H26.25V5.25H15.75ZM19.25 24.5H22.75V14H19.25V24.5ZM21 38.5C18.8417 38.5 16.8073 38.0844 14.8969 37.2531C12.9865 36.4219 11.3167 35.2917 9.8875 33.8625C8.45833 32.4333 7.32812 30.7635 6.49687 28.8531C5.66562 26.9427 5.25 24.9083 5.25 22.75C5.25 20.5917 5.66562 18.5573 6.49687 16.6469C7.32812 14.7365 8.45833 13.0667 9.8875 11.6375C11.3167 10.2083 12.9865 9.07812 14.8969 8.24687C16.8073 7.41562 18.8417 7 21 7C22.8083 7 24.5437 7.29167 26.2062 7.875C27.8687 8.45833 29.4292 9.30417 30.8875 10.4125L33.3375 7.9625L35.7875 10.4125L33.3375 12.8625C34.4458 14.3208 35.2917 15.8812 35.875 17.5437C36.4583 19.2062 36.75 20.9417 36.75 22.75C36.75 24.9083 36.3344 26.9427 35.5031 28.8531C34.6719 30.7635 33.5417 32.4333 32.1125 33.8625C30.6833 35.2917 29.0135 36.4219 27.1031 37.2531C25.1927 38.0844 23.1583 38.5 21 38.5ZM21 35C24.3833 35 27.2708 33.8042 29.6625 31.4125C32.0542 29.0208 33.25 26.1333 33.25 22.75C33.25 19.3667 32.0542 16.4792 29.6625 14.0875C27.2708 11.6958 24.3833 10.5 21 10.5C17.6167 10.5 14.7292 11.6958 12.3375 14.0875C9.94583 16.4792 8.75 19.3667 8.75 22.75C8.75 26.1333 9.94583 29.0208 12.3375 31.4125C14.7292 33.8042 17.6167 35 21 35Z" fill="#875800"/>
</svg>
